<?xml version="1.0" encoding="utf-8"?>
<!-- Generator: Adobe Illustrator 22.0.1, SVG Export Plug-In . SVG Version: 6.00 Build 0)  -->
<svg version="1.1" id="Layer_1" xmlns="http://www.w3.org/2000/svg" xmlns:xlink="http://www.w3.org/1999/xlink" x="0px" y="0px"
	 viewBox="0 0 80 80" style="enable-background:new 0 0 80 80;" xml:space="preserve">
<style type="text/css">
	.st0{fill:#FFFFFF;}
</style>
<g>
	<path class="st0" d="M27.4,21.5c0-1.8-1.4-3.2-3.2-3.2h-4.4v6.1h4.4C25.9,24.4,27.4,23.3,27.4,21.5z"/>
	<path class="st0" d="M56.5,17c-3.8,0-6.8,3.1-6.8,6.8c0,3.7,3,6.8,6.8,6.8c3.7,0,6.8-3,6.8-6.8C63.2,20,60.2,17,56.5,17z"/>
	<path class="st0" d="M0,0v80h80V0H0z M14.6,13c0,0,7.9,0,10.4,0c4.4,0,7.7,3.8,7.7,8.5c0,3.1-1.6,5.3-3.8,6.5l4.7,6.5h-6.5
		l-3.5-5.4h-3.8v5.4h-5.3V13z M24.2,67.6c-6.7,0-9.8-4.4-9.8-7.3h5.7c0,0,0.2,3,4.1,3c2.1,0,4-1.2,4-2.6c0-2.8-5.1-3-6.5-3.3
		c-2.6-0.5-6.9-1.6-6.9-5.8c0-3.9,4.1-7,9.2-7c6.2,0,9.2,3.1,9.2,6h-5.4c0-0.5-0.9-1.7-3.8-1.7c-1.9,0-3.5,1.2-3.5,2.7
		c0,1.8,3.4,1.8,4.6,2c3.1,0.6,8.8,1.3,8.8,7.1C33.8,64.5,29.4,67.6,24.2,67.6z M65.1,49.6H53.3v4.1h9.3v4.9h-9.3v4.1h11.7v4.9H47.9
		V44.7h17.2V49.6z M56.5,35.8c-6.7,0-12.1-5.4-12.1-12c0-6.6,5.4-12.1,12.1-12.1c6.6,0,12,5.4,12,12.1
		C68.5,30.4,63.1,35.8,56.5,35.8z"/>
</g>
</svg>
